<svg width="232" height="66" viewBox="0 0 232 66" fill="none" xmlns="http://www.w3.org/2000/svg">
<rect width="232" height="66" rx="10" fill="#25671E"/>
<path d="M39.3897 49.715C37.4705 51.5754 35.3751 51.2817 33.358 50.4004C31.2235 49.4996 29.2651 49.4604 27.013 50.4004C24.193 51.6146 22.7047 51.2621 21.0205 49.715C11.4639 39.8646 12.8739 24.8637 23.723 24.3154C26.3668 24.4525 28.2076 25.7646 29.7547 25.8821C32.0655 25.4121 34.2785 24.0608 36.746 24.2371C39.703 24.4721 41.9355 25.6471 43.4043 27.7621C37.2943 31.4242 38.7435 39.4729 44.3443 41.725C43.228 44.6625 41.7789 47.5804 39.3701 49.7346L39.3897 49.715ZM29.5589 24.1979C29.2651 19.8308 32.8097 16.2275 36.883 15.875C37.451 20.9275 32.3005 24.6875 29.5589 24.1979Z" fill="#F7F0F0"/>
<path d="M64.731 16.913C65.7363 16.913 66.5987 17.095 67.318 17.459C68.0373 17.823 68.5877 18.3473 68.969 19.032C69.3503 19.7167 69.541 20.5313 69.541 21.476C69.541 22.412 69.3503 23.2223 68.969 23.907C68.5877 24.583 68.0373 25.103 67.318 25.467C66.5987 25.8223 65.7363 26 64.731 26H62.04V16.913H64.731ZM64.731 25.246C65.9963 25.246 66.9583 24.9167 67.617 24.258C68.2843 23.5907 68.618 22.6633 68.618 21.476C68.618 20.28 68.2843 19.3483 67.617 18.681C66.9583 18.005 65.9963 17.667 64.731 17.667H62.95V25.246H64.731ZM74.3257 26.104C73.6584 26.104 73.056 25.9567 72.5187 25.662C71.99 25.3587 71.5697 24.934 71.2577 24.388C70.9544 23.8333 70.8027 23.1877 70.8027 22.451C70.8027 21.7143 70.9587 21.073 71.2707 20.527C71.5827 19.9723 72.0074 19.5477 72.5447 19.253C73.082 18.9497 73.6844 18.798 74.3517 18.798C75.019 18.798 75.6214 18.9497 76.1587 19.253C76.7047 19.5477 77.1294 19.9723 77.4327 20.527C77.7447 21.073 77.9007 21.7143 77.9007 22.451C77.9007 23.179 77.7447 23.8203 77.4327 24.375C77.1207 24.9297 76.6917 25.3587 76.1457 25.662C75.5997 25.9567 74.993 26.104 74.3257 26.104ZM74.3257 25.311C74.7937 25.311 75.227 25.207 75.6257 24.999C76.0244 24.7823 76.345 24.4617 76.5877 24.037C76.839 23.6037 76.9647 23.075 76.9647 22.451C76.9647 21.827 76.8434 21.3027 76.6007 20.878C76.358 20.4447 76.0374 20.124 75.6387 19.916C75.24 19.6993 74.8067 19.591 74.3387 19.591C73.8707 19.591 73.4374 19.6993 73.0387 19.916C72.64 20.124 72.3194 20.4447 72.0767 20.878C71.8427 21.3027 71.7257 21.827 71.7257 22.451C71.7257 23.075 71.8427 23.6037 72.0767 24.037C72.3194 24.4617 72.6357 24.7823 73.0257 24.999C73.4244 25.207 73.8577 25.311 74.3257 25.311ZM88.9195 18.902L86.6965 26H85.7865L83.8235 20.046L81.8605 26H80.9375L78.7145 18.902H79.6375L81.4055 25.077L83.3945 18.902H84.3045L86.2675 25.09L88.0225 18.902H88.9195ZM93.4881 18.772C94.3375 18.772 95.0308 19.0363 95.5681 19.565C96.1055 20.085 96.3741 20.8433 96.3741 21.84V26H95.4771V21.944C95.4771 21.1727 95.2821 20.5833 94.8921 20.176C94.5108 19.7687 93.9865 19.565 93.3191 19.565C92.6345 19.565 92.0885 19.7817 91.6811 20.215C91.2738 20.6483 91.0701 21.2853 91.0701 22.126V26H90.1601V18.902H91.0701V20.111C91.2955 19.6777 91.6205 19.3483 92.0451 19.123C92.4698 18.889 92.9508 18.772 93.4881 18.772ZM99.2967 16.38V26H98.3867V16.38H99.2967ZM104.464 26.104C103.797 26.104 103.195 25.9567 102.657 25.662C102.129 25.3587 101.708 24.934 101.396 24.388C101.093 23.8333 100.941 23.1877 100.941 22.451C100.941 21.7143 101.097 21.073 101.409 20.527C101.721 19.9723 102.146 19.5477 102.683 19.253C103.221 18.9497 103.823 18.798 104.49 18.798C105.158 18.798 105.76 18.9497 106.297 19.253C106.843 19.5477 107.268 19.9723 107.571 20.527C107.883 21.073 108.039 21.7143 108.039 22.451C108.039 23.179 107.883 23.8203 107.571 24.375C107.259 24.9297 106.83 25.3587 106.284 25.662C105.738 25.9567 105.132 26.104 104.464 26.104ZM104.464 25.311C104.932 25.311 105.366 25.207 105.764 24.999C106.163 24.7823 106.484 24.4617 106.726 24.037C106.978 23.6037 107.103 23.075 107.103 22.451C107.103 21.827 106.982 21.3027 106.739 20.878C106.497 20.4447 106.176 20.124 105.777 19.916C105.379 19.6993 104.945 19.591 104.477 19.591C104.009 19.591 103.576 19.6993 103.177 19.916C102.779 20.124 102.458 20.4447 102.215 20.878C101.981 21.3027 101.864 21.827 101.864 22.451C101.864 23.075 101.981 23.6037 102.215 24.037C102.458 24.4617 102.774 24.7823 103.164 24.999C103.563 25.207 103.996 25.311 104.464 25.311ZM109.282 22.438C109.282 21.71 109.425 21.073 109.711 20.527C110.006 19.9723 110.409 19.5477 110.92 19.253C111.44 18.9497 112.025 18.798 112.675 18.798C113.351 18.798 113.932 18.954 114.417 19.266C114.911 19.578 115.267 19.9767 115.483 20.462V18.902H116.393V26H115.483V24.427C115.258 24.9123 114.898 25.3153 114.404 25.636C113.919 25.948 113.338 26.104 112.662 26.104C112.021 26.104 111.44 25.9523 110.92 25.649C110.409 25.3457 110.006 24.9167 109.711 24.362C109.425 23.8073 109.282 23.166 109.282 22.438ZM115.483 22.451C115.483 21.879 115.366 21.3763 115.132 20.943C114.898 20.5097 114.578 20.176 114.17 19.942C113.772 19.708 113.33 19.591 112.844 19.591C112.342 19.591 111.891 19.7037 111.492 19.929C111.094 20.1543 110.777 20.4837 110.543 20.917C110.318 21.3417 110.205 21.8487 110.205 22.438C110.205 23.0187 110.318 23.53 110.543 23.972C110.777 24.4053 111.094 24.739 111.492 24.973C111.891 25.1983 112.342 25.311 112.844 25.311C113.33 25.311 113.772 25.194 114.17 24.96C114.578 24.726 114.898 24.3923 115.132 23.959C115.366 23.5257 115.483 23.023 115.483 22.451ZM118.055 22.438C118.055 21.71 118.202 21.073 118.497 20.527C118.791 19.9723 119.194 19.5477 119.706 19.253C120.226 18.9497 120.811 18.798 121.461 18.798C122.085 18.798 122.648 18.9497 123.151 19.253C123.653 19.5563 124.022 19.9507 124.256 20.436V16.38H125.166V26H124.256V24.414C124.039 24.908 123.684 25.3153 123.19 25.636C122.696 25.948 122.115 26.104 121.448 26.104C120.798 26.104 120.213 25.9523 119.693 25.649C119.181 25.3457 118.778 24.9167 118.484 24.362C118.198 23.8073 118.055 23.166 118.055 22.438ZM124.256 22.451C124.256 21.879 124.139 21.3763 123.905 20.943C123.671 20.5097 123.35 20.176 122.943 19.942C122.544 19.708 122.102 19.591 121.617 19.591C121.114 19.591 120.663 19.7037 120.265 19.929C119.866 20.1543 119.55 20.4837 119.316 20.917C119.09 21.3417 118.978 21.8487 118.978 22.438C118.978 23.0187 119.09 23.53 119.316 23.972C119.55 24.4053 119.866 24.739 120.265 24.973C120.663 25.1983 121.114 25.311 121.617 25.311C122.102 25.311 122.544 25.194 122.943 24.96C123.35 24.726 123.671 24.3923 123.905 23.959C124.139 23.5257 124.256 23.023 124.256 22.451ZM133.918 26.104C133.25 26.104 132.648 25.9567 132.111 25.662C131.582 25.3587 131.162 24.934 130.85 24.388C130.546 23.8333 130.395 23.1877 130.395 22.451C130.395 21.7143 130.551 21.073 130.863 20.527C131.175 19.9723 131.599 19.5477 132.137 19.253C132.674 18.9497 133.276 18.798 133.944 18.798C134.611 18.798 135.213 18.9497 135.751 19.253C136.297 19.5477 136.721 19.9723 137.025 20.527C137.337 21.073 137.493 21.7143 137.493 22.451C137.493 23.179 137.337 23.8203 137.025 24.375C136.713 24.9297 136.284 25.3587 135.738 25.662C135.192 25.9567 134.585 26.104 133.918 26.104ZM133.918 25.311C134.386 25.311 134.819 25.207 135.218 24.999C135.616 24.7823 135.937 24.4617 136.18 24.037C136.431 23.6037 136.557 23.075 136.557 22.451C136.557 21.827 136.435 21.3027 136.193 20.878C135.95 20.4447 135.629 20.124 135.231 19.916C134.832 19.6993 134.399 19.591 133.931 19.591C133.463 19.591 133.029 19.6993 132.631 19.916C132.232 20.124 131.911 20.4447 131.669 20.878C131.435 21.3027 131.318 21.827 131.318 22.451C131.318 23.075 131.435 23.6037 131.669 24.037C131.911 24.4617 132.228 24.7823 132.618 24.999C133.016 25.207 133.45 25.311 133.918 25.311ZM142.479 18.772C143.329 18.772 144.022 19.0363 144.559 19.565C145.097 20.085 145.365 20.8433 145.365 21.84V26H144.468V21.944C144.468 21.1727 144.273 20.5833 143.883 20.176C143.502 19.7687 142.978 19.565 142.31 19.565C141.626 19.565 141.08 19.7817 140.672 20.215C140.265 20.6483 140.061 21.2853 140.061 22.126V26H139.151V18.902H140.061V20.111C140.287 19.6777 140.612 19.3483 141.036 19.123C141.461 18.889 141.942 18.772 142.479 18.772ZM152.128 19.669V24.076C152.128 24.5093 152.211 24.8083 152.375 24.973C152.54 25.1377 152.83 25.22 153.246 25.22H154.078V26H153.103C152.462 26 151.985 25.8527 151.673 25.558C151.361 25.2547 151.205 24.7607 151.205 24.076V19.669H150.217V18.902H151.205V17.121H152.128V18.902H154.078V19.669H152.128ZM158.959 18.772C159.496 18.772 159.977 18.8847 160.402 19.11C160.835 19.3353 161.173 19.682 161.416 20.15C161.667 20.6093 161.793 21.1727 161.793 21.84V26H160.896V21.944C160.896 21.1727 160.701 20.5833 160.311 20.176C159.93 19.7687 159.405 19.565 158.738 19.565C158.053 19.565 157.507 19.7817 157.1 20.215C156.693 20.6483 156.489 21.2853 156.489 22.126V26H155.579V16.38H156.489V20.111C156.714 19.6863 157.044 19.357 157.477 19.123C157.919 18.889 158.413 18.772 158.959 18.772ZM170.228 22.087C170.228 22.399 170.219 22.6373 170.202 22.802H164.313C164.339 23.3393 164.469 23.7987 164.703 24.18C164.937 24.5613 165.244 24.8517 165.626 25.051C166.007 25.2417 166.423 25.337 166.874 25.337C167.463 25.337 167.957 25.194 168.356 24.908C168.763 24.622 169.032 24.2363 169.162 23.751H170.124C169.95 24.4443 169.578 25.012 169.006 25.454C168.442 25.8873 167.732 26.104 166.874 26.104C166.206 26.104 165.608 25.9567 165.08 25.662C164.551 25.3587 164.135 24.934 163.832 24.388C163.537 23.8333 163.39 23.1877 163.39 22.451C163.39 21.7143 163.537 21.0687 163.832 20.514C164.126 19.9593 164.538 19.5347 165.067 19.24C165.595 18.9453 166.198 18.798 166.874 18.798C167.55 18.798 168.139 18.9453 168.642 19.24C169.153 19.5347 169.543 19.9333 169.812 20.436C170.089 20.93 170.228 21.4803 170.228 22.087ZM169.305 22.061C169.313 21.5323 169.205 21.0817 168.98 20.709C168.763 20.3363 168.464 20.0547 168.083 19.864C167.701 19.6733 167.285 19.578 166.835 19.578C166.159 19.578 165.582 19.7947 165.106 20.228C164.629 20.6613 164.365 21.2723 164.313 22.061H169.305Z" fill="white"/>
<path d="M70.88 46.16H65.06L64.06 49H61.68L66.66 35.08H69.3L74.28 49H71.88L70.88 46.16ZM70.24 44.3L67.98 37.84L65.7 44.3H70.24ZM78.7253 39.6C79.112 39.0933 79.6386 38.6667 80.3053 38.32C80.972 37.9733 81.7253 37.8 82.5653 37.8C83.5253 37.8 84.3986 38.04 85.1853 38.52C85.9853 38.9867 86.612 39.6467 87.0653 40.5C87.5186 41.3533 87.7453 42.3333 87.7453 43.44C87.7453 44.5467 87.5186 45.54 87.0653 46.42C86.612 47.2867 85.9853 47.9667 85.1853 48.46C84.3986 48.94 83.5253 49.18 82.5653 49.18C81.7253 49.18 80.9786 49.0133 80.3253 48.68C79.672 48.3333 79.1386 47.9067 78.7253 47.4V54.24H76.4453V37.98H78.7253V39.6ZM85.4253 43.44C85.4253 42.68 85.2653 42.0267 84.9453 41.48C84.6386 40.92 84.2253 40.5 83.7053 40.22C83.1986 39.9267 82.652 39.78 82.0653 39.78C81.492 39.78 80.9453 39.9267 80.4253 40.22C79.9186 40.5133 79.5053 40.94 79.1853 41.5C78.8786 42.06 78.7253 42.72 78.7253 43.48C78.7253 44.24 78.8786 44.9067 79.1853 45.48C79.5053 46.04 79.9186 46.4667 80.4253 46.76C80.9453 47.0533 81.492 47.2 82.0653 47.2C82.652 47.2 83.1986 47.0533 83.7053 46.76C84.2253 46.4533 84.6386 46.0133 84.9453 45.44C85.2653 44.8667 85.4253 44.2 85.4253 43.44ZM92.28 39.6C92.6667 39.0933 93.1933 38.6667 93.86 38.32C94.5267 37.9733 95.28 37.8 96.12 37.8C97.08 37.8 97.9533 38.04 98.74 38.52C99.54 38.9867 100.167 39.6467 100.62 40.5C101.073 41.3533 101.3 42.3333 101.3 43.44C101.3 44.5467 101.073 45.54 100.62 46.42C100.167 47.2867 99.54 47.9667 98.74 48.46C97.9533 48.94 97.08 49.18 96.12 49.18C95.28 49.18 94.5333 49.0133 93.88 48.68C93.2267 48.3333 92.6933 47.9067 92.28 47.4V54.24H90V37.98H92.28V39.6ZM98.98 43.44C98.98 42.68 98.82 42.0267 98.5 41.48C98.1933 40.92 97.78 40.5 97.26 40.22C96.7533 39.9267 96.2067 39.78 95.62 39.78C95.0467 39.78 94.5 39.9267 93.98 40.22C93.4733 40.5133 93.06 40.94 92.74 41.5C92.4333 42.06 92.28 42.72 92.28 43.48C92.28 44.24 92.4333 44.9067 92.74 45.48C93.06 46.04 93.4733 46.4667 93.98 46.76C94.5 47.0533 95.0467 47.2 95.62 47.2C96.2067 47.2 96.7533 47.0533 97.26 46.76C97.78 46.4533 98.1933 46.0133 98.5 45.44C98.82 44.8667 98.98 44.2 98.98 43.44ZM113.33 49.14C112.397 49.14 111.557 48.98 110.81 48.66C110.063 48.3267 109.477 47.86 109.05 47.26C108.623 46.66 108.41 45.96 108.41 45.16H110.85C110.903 45.76 111.137 46.2533 111.55 46.64C111.977 47.0267 112.57 47.22 113.33 47.22C114.117 47.22 114.73 47.0333 115.17 46.66C115.61 46.2733 115.83 45.78 115.83 45.18C115.83 44.7133 115.69 44.3333 115.41 44.04C115.143 43.7467 114.803 43.52 114.39 43.36C113.99 43.2 113.43 43.0267 112.71 42.84C111.803 42.6 111.063 42.36 110.49 42.12C109.93 41.8667 109.45 41.48 109.05 40.96C108.65 40.44 108.45 39.7467 108.45 38.88C108.45 38.08 108.65 37.38 109.05 36.78C109.45 36.18 110.01 35.72 110.73 35.4C111.45 35.08 112.283 34.92 113.23 34.92C114.577 34.92 115.677 35.26 116.53 35.94C117.397 36.6067 117.877 37.5267 117.97 38.7H115.45C115.41 38.1933 115.17 37.76 114.73 37.4C114.29 37.04 113.71 36.86 112.99 36.86C112.337 36.86 111.803 37.0267 111.39 37.36C110.977 37.6933 110.77 38.1733 110.77 38.8C110.77 39.2267 110.897 39.58 111.15 39.86C111.417 40.1267 111.75 40.34 112.15 40.5C112.55 40.66 113.097 40.8333 113.79 41.02C114.71 41.2733 115.457 41.5267 116.03 41.78C116.617 42.0333 117.11 42.4267 117.51 42.96C117.923 43.48 118.13 44.18 118.13 45.06C118.13 45.7667 117.937 46.4333 117.55 47.06C117.177 47.6867 116.623 48.1933 115.89 48.58C115.17 48.9533 114.317 49.14 113.33 49.14ZM123.48 39.84V45.94C123.48 46.3533 123.574 46.6533 123.76 46.84C123.96 47.0133 124.294 47.1 124.76 47.1H126.16V49H124.36C123.334 49 122.547 48.76 122 48.28C121.454 47.8 121.18 47.02 121.18 45.94V39.84H119.88V37.98H121.18V35.24H123.48V37.98H126.16V39.84H123.48ZM133.042 49.18C132.002 49.18 131.062 48.9467 130.222 48.48C129.382 48 128.722 47.3333 128.242 46.48C127.762 45.6133 127.522 44.6133 127.522 43.48C127.522 42.36 127.768 41.3667 128.262 40.5C128.755 39.6333 129.428 38.9667 130.282 38.5C131.135 38.0333 132.088 37.8 133.142 37.8C134.195 37.8 135.148 38.0333 136.002 38.5C136.855 38.9667 137.528 39.6333 138.022 40.5C138.515 41.3667 138.762 42.36 138.762 43.48C138.762 44.6 138.508 45.5933 138.002 46.46C137.495 47.3267 136.802 48 135.922 48.48C135.055 48.9467 134.095 49.18 133.042 49.18ZM133.042 47.2C133.628 47.2 134.175 47.06 134.682 46.78C135.202 46.5 135.622 46.08 135.942 45.52C136.262 44.96 136.422 44.28 136.422 43.48C136.422 42.68 136.268 42.0067 135.962 41.46C135.655 40.9 135.248 40.48 134.742 40.2C134.235 39.92 133.688 39.78 133.102 39.78C132.515 39.78 131.968 39.92 131.462 40.2C130.968 40.48 130.575 40.9 130.282 41.46C129.988 42.0067 129.842 42.68 129.842 43.48C129.842 44.6667 130.142 45.5867 130.742 46.24C131.355 46.88 132.122 47.2 133.042 47.2ZM143.296 39.58C143.629 39.02 144.069 38.5867 144.616 38.28C145.176 37.96 145.836 37.8 146.596 37.8V40.16H146.016C145.122 40.16 144.442 40.3867 143.976 40.84C143.522 41.2933 143.296 42.08 143.296 43.2V49H141.016V37.98H143.296V39.58ZM158.791 43.22C158.791 43.6333 158.765 44.0067 158.711 44.34H150.291C150.358 45.22 150.685 45.9267 151.271 46.46C151.858 46.9933 152.578 47.26 153.431 47.26C154.658 47.26 155.525 46.7467 156.031 45.72H158.491C158.158 46.7333 157.551 47.5667 156.671 48.22C155.805 48.86 154.725 49.18 153.431 49.18C152.378 49.18 151.431 48.9467 150.591 48.48C149.765 48 149.111 47.3333 148.631 46.48C148.165 45.6133 147.931 44.6133 147.931 43.48C147.931 42.3467 148.158 41.3533 148.611 40.5C149.078 39.6333 149.725 38.9667 150.551 38.5C151.391 38.0333 152.351 37.8 153.431 37.8C154.471 37.8 155.398 38.0267 156.211 38.48C157.025 38.9333 157.658 39.5733 158.111 40.4C158.565 41.2133 158.791 42.1533 158.791 43.22ZM156.411 42.5C156.398 41.66 156.098 40.9867 155.511 40.48C154.925 39.9733 154.198 39.72 153.331 39.72C152.545 39.72 151.871 39.9733 151.311 40.48C150.751 40.9733 150.418 41.6467 150.311 42.5H156.411Z" fill="white"/>
</svg>
