<svg width="232" height="66" viewBox="0 0 232 66" fill="none" xmlns="http://www.w3.org/2000/svg">
<rect width="232" height="66" rx="10" fill="#25671E"/>
<path d="M13.6695 15.1235L33.8711 34.9723L13.8198 55.0041C13.4917 54.5761 13.2371 54.0964 13.0663 53.5845C12.9779 53.0051 12.9779 52.4156 13.0663 51.8361V17.7473C13.0062 16.8325 13.2165 15.9178 13.6672 15.1235M42.5735 26.3158L35.9791 32.8603L16.0179 13.1921C16.6651 12.9674 17.3585 12.9049 18.0358 13.0114C19.099 13.3032 20.1137 13.7525 21.0452 14.3384L39.1111 24.3543C40.2853 24.9865 41.4294 25.6512 42.5735 26.3158ZM35.9814 37.1145L42.5435 43.571L37.7866 46.2249L23.2734 54.3071C22.0715 54.9717 20.8649 55.6063 19.6907 56.3311C19.1883 56.6445 18.6249 56.8469 18.0382 56.9248C17.4514 57.0027 16.8549 56.9542 16.2883 56.7827L35.9814 37.1145ZM52.9933 34.9723C53.0102 35.7821 52.8059 36.5811 52.4027 37.2831C51.9994 37.9851 51.4124 38.5634 50.705 38.9555L45.2825 41.9707L38.1472 34.9723L45.3125 27.8535C47.1501 28.8794 48.9576 29.9053 50.7628 30.871C51.4828 31.2742 52.0741 31.8733 52.4684 32.5991C52.8627 33.3249 53.0462 34.1477 52.9933 34.9723Z" fill="#F7F0F0"/>
<path d="M64.731 16.913C65.7363 16.913 66.5987 17.095 67.318 17.459C68.0373 17.823 68.5877 18.3473 68.969 19.032C69.3503 19.7167 69.541 20.5313 69.541 21.476C69.541 22.412 69.3503 23.2223 68.969 23.907C68.5877 24.583 68.0373 25.103 67.318 25.467C66.5987 25.8223 65.7363 26 64.731 26H62.04V16.913H64.731ZM64.731 25.246C65.9963 25.246 66.9583 24.9167 67.617 24.258C68.2843 23.5907 68.618 22.6633 68.618 21.476C68.618 20.28 68.2843 19.3483 67.617 18.681C66.9583 18.005 65.9963 17.667 64.731 17.667H62.95V25.246H64.731ZM74.3257 26.104C73.6584 26.104 73.056 25.9567 72.5187 25.662C71.99 25.3587 71.5697 24.934 71.2577 24.388C70.9544 23.8333 70.8027 23.1877 70.8027 22.451C70.8027 21.7143 70.9587 21.073 71.2707 20.527C71.5827 19.9723 72.0074 19.5477 72.5447 19.253C73.082 18.9497 73.6844 18.798 74.3517 18.798C75.019 18.798 75.6214 18.9497 76.1587 19.253C76.7047 19.5477 77.1294 19.9723 77.4327 20.527C77.7447 21.073 77.9007 21.7143 77.9007 22.451C77.9007 23.179 77.7447 23.8203 77.4327 24.375C77.1207 24.9297 76.6917 25.3587 76.1457 25.662C75.5997 25.9567 74.993 26.104 74.3257 26.104ZM74.3257 25.311C74.7937 25.311 75.227 25.207 75.6257 24.999C76.0244 24.7823 76.345 24.4617 76.5877 24.037C76.839 23.6037 76.9647 23.075 76.9647 22.451C76.9647 21.827 76.8434 21.3027 76.6007 20.878C76.358 20.4447 76.0374 20.124 75.6387 19.916C75.24 19.6993 74.8067 19.591 74.3387 19.591C73.8707 19.591 73.4374 19.6993 73.0387 19.916C72.64 20.124 72.3194 20.4447 72.0767 20.878C71.8427 21.3027 71.7257 21.827 71.7257 22.451C71.7257 23.075 71.8427 23.6037 72.0767 24.037C72.3194 24.4617 72.6357 24.7823 73.0257 24.999C73.4244 25.207 73.8577 25.311 74.3257 25.311ZM88.9195 18.902L86.6965 26H85.7865L83.8235 20.046L81.8605 26H80.9375L78.7145 18.902H79.6375L81.4055 25.077L83.3945 18.902H84.3045L86.2675 25.09L88.0225 18.902H88.9195ZM93.4881 18.772C94.3375 18.772 95.0308 19.0363 95.5681 19.565C96.1055 20.085 96.3741 20.8433 96.3741 21.84V26H95.4771V21.944C95.4771 21.1727 95.2821 20.5833 94.8921 20.176C94.5108 19.7687 93.9865 19.565 93.3191 19.565C92.6345 19.565 92.0885 19.7817 91.6811 20.215C91.2738 20.6483 91.0701 21.2853 91.0701 22.126V26H90.1601V18.902H91.0701V20.111C91.2955 19.6777 91.6205 19.3483 92.0451 19.123C92.4698 18.889 92.9508 18.772 93.4881 18.772ZM99.2967 16.38V26H98.3867V16.38H99.2967ZM104.464 26.104C103.797 26.104 103.195 25.9567 102.657 25.662C102.129 25.3587 101.708 24.934 101.396 24.388C101.093 23.8333 100.941 23.1877 100.941 22.451C100.941 21.7143 101.097 21.073 101.409 20.527C101.721 19.9723 102.146 19.5477 102.683 19.253C103.221 18.9497 103.823 18.798 104.49 18.798C105.158 18.798 105.76 18.9497 106.297 19.253C106.843 19.5477 107.268 19.9723 107.571 20.527C107.883 21.073 108.039 21.7143 108.039 22.451C108.039 23.179 107.883 23.8203 107.571 24.375C107.259 24.9297 106.83 25.3587 106.284 25.662C105.738 25.9567 105.132 26.104 104.464 26.104ZM104.464 25.311C104.932 25.311 105.366 25.207 105.764 24.999C106.163 24.7823 106.484 24.4617 106.726 24.037C106.978 23.6037 107.103 23.075 107.103 22.451C107.103 21.827 106.982 21.3027 106.739 20.878C106.497 20.4447 106.176 20.124 105.777 19.916C105.379 19.6993 104.945 19.591 104.477 19.591C104.009 19.591 103.576 19.6993 103.177 19.916C102.779 20.124 102.458 20.4447 102.215 20.878C101.981 21.3027 101.864 21.827 101.864 22.451C101.864 23.075 101.981 23.6037 102.215 24.037C102.458 24.4617 102.774 24.7823 103.164 24.999C103.563 25.207 103.996 25.311 104.464 25.311ZM109.282 22.438C109.282 21.71 109.425 21.073 109.711 20.527C110.006 19.9723 110.409 19.5477 110.92 19.253C111.44 18.9497 112.025 18.798 112.675 18.798C113.351 18.798 113.932 18.954 114.417 19.266C114.911 19.578 115.267 19.9767 115.483 20.462V18.902H116.393V26H115.483V24.427C115.258 24.9123 114.898 25.3153 114.404 25.636C113.919 25.948 113.338 26.104 112.662 26.104C112.021 26.104 111.44 25.9523 110.92 25.649C110.409 25.3457 110.006 24.9167 109.711 24.362C109.425 23.8073 109.282 23.166 109.282 22.438ZM115.483 22.451C115.483 21.879 115.366 21.3763 115.132 20.943C114.898 20.5097 114.578 20.176 114.17 19.942C113.772 19.708 113.33 19.591 112.844 19.591C112.342 19.591 111.891 19.7037 111.492 19.929C111.094 20.1543 110.777 20.4837 110.543 20.917C110.318 21.3417 110.205 21.8487 110.205 22.438C110.205 23.0187 110.318 23.53 110.543 23.972C110.777 24.4053 111.094 24.739 111.492 24.973C111.891 25.1983 112.342 25.311 112.844 25.311C113.33 25.311 113.772 25.194 114.17 24.96C114.578 24.726 114.898 24.3923 115.132 23.959C115.366 23.5257 115.483 23.023 115.483 22.451ZM118.055 22.438C118.055 21.71 118.202 21.073 118.497 20.527C118.791 19.9723 119.194 19.5477 119.706 19.253C120.226 18.9497 120.811 18.798 121.461 18.798C122.085 18.798 122.648 18.9497 123.151 19.253C123.653 19.5563 124.022 19.9507 124.256 20.436V16.38H125.166V26H124.256V24.414C124.039 24.908 123.684 25.3153 123.19 25.636C122.696 25.948 122.115 26.104 121.448 26.104C120.798 26.104 120.213 25.9523 119.693 25.649C119.181 25.3457 118.778 24.9167 118.484 24.362C118.198 23.8073 118.055 23.166 118.055 22.438ZM124.256 22.451C124.256 21.879 124.139 21.3763 123.905 20.943C123.671 20.5097 123.35 20.176 122.943 19.942C122.544 19.708 122.102 19.591 121.617 19.591C121.114 19.591 120.663 19.7037 120.265 19.929C119.866 20.1543 119.55 20.4837 119.316 20.917C119.09 21.3417 118.978 21.8487 118.978 22.438C118.978 23.0187 119.09 23.53 119.316 23.972C119.55 24.4053 119.866 24.739 120.265 24.973C120.663 25.1983 121.114 25.311 121.617 25.311C122.102 25.311 122.544 25.194 122.943 24.96C123.35 24.726 123.671 24.3923 123.905 23.959C124.139 23.5257 124.256 23.023 124.256 22.451ZM133.918 26.104C133.25 26.104 132.648 25.9567 132.111 25.662C131.582 25.3587 131.162 24.934 130.85 24.388C130.546 23.8333 130.395 23.1877 130.395 22.451C130.395 21.7143 130.551 21.073 130.863 20.527C131.175 19.9723 131.599 19.5477 132.137 19.253C132.674 18.9497 133.276 18.798 133.944 18.798C134.611 18.798 135.213 18.9497 135.751 19.253C136.297 19.5477 136.721 19.9723 137.025 20.527C137.337 21.073 137.493 21.7143 137.493 22.451C137.493 23.179 137.337 23.8203 137.025 24.375C136.713 24.9297 136.284 25.3587 135.738 25.662C135.192 25.9567 134.585 26.104 133.918 26.104ZM133.918 25.311C134.386 25.311 134.819 25.207 135.218 24.999C135.616 24.7823 135.937 24.4617 136.18 24.037C136.431 23.6037 136.557 23.075 136.557 22.451C136.557 21.827 136.435 21.3027 136.193 20.878C135.95 20.4447 135.629 20.124 135.231 19.916C134.832 19.6993 134.399 19.591 133.931 19.591C133.463 19.591 133.029 19.6993 132.631 19.916C132.232 20.124 131.911 20.4447 131.669 20.878C131.435 21.3027 131.318 21.827 131.318 22.451C131.318 23.075 131.435 23.6037 131.669 24.037C131.911 24.4617 132.228 24.7823 132.618 24.999C133.016 25.207 133.45 25.311 133.918 25.311ZM142.479 18.772C143.329 18.772 144.022 19.0363 144.559 19.565C145.097 20.085 145.365 20.8433 145.365 21.84V26H144.468V21.944C144.468 21.1727 144.273 20.5833 143.883 20.176C143.502 19.7687 142.978 19.565 142.31 19.565C141.626 19.565 141.08 19.7817 140.672 20.215C140.265 20.6483 140.061 21.2853 140.061 22.126V26H139.151V18.902H140.061V20.111C140.287 19.6777 140.612 19.3483 141.036 19.123C141.461 18.889 141.942 18.772 142.479 18.772ZM152.128 19.669V24.076C152.128 24.5093 152.211 24.8083 152.375 24.973C152.54 25.1377 152.83 25.22 153.246 25.22H154.078V26H153.103C152.462 26 151.985 25.8527 151.673 25.558C151.361 25.2547 151.205 24.7607 151.205 24.076V19.669H150.217V18.902H151.205V17.121H152.128V18.902H154.078V19.669H152.128ZM158.959 18.772C159.496 18.772 159.977 18.8847 160.402 19.11C160.835 19.3353 161.173 19.682 161.416 20.15C161.667 20.6093 161.793 21.1727 161.793 21.84V26H160.896V21.944C160.896 21.1727 160.701 20.5833 160.311 20.176C159.93 19.7687 159.405 19.565 158.738 19.565C158.053 19.565 157.507 19.7817 157.1 20.215C156.693 20.6483 156.489 21.2853 156.489 22.126V26H155.579V16.38H156.489V20.111C156.714 19.6863 157.044 19.357 157.477 19.123C157.919 18.889 158.413 18.772 158.959 18.772ZM170.228 22.087C170.228 22.399 170.219 22.6373 170.202 22.802H164.313C164.339 23.3393 164.469 23.7987 164.703 24.18C164.937 24.5613 165.244 24.8517 165.626 25.051C166.007 25.2417 166.423 25.337 166.874 25.337C167.463 25.337 167.957 25.194 168.356 24.908C168.763 24.622 169.032 24.2363 169.162 23.751H170.124C169.95 24.4443 169.578 25.012 169.006 25.454C168.442 25.8873 167.732 26.104 166.874 26.104C166.206 26.104 165.608 25.9567 165.08 25.662C164.551 25.3587 164.135 24.934 163.832 24.388C163.537 23.8333 163.39 23.1877 163.39 22.451C163.39 21.7143 163.537 21.0687 163.832 20.514C164.126 19.9593 164.538 19.5347 165.067 19.24C165.595 18.9453 166.198 18.798 166.874 18.798C167.55 18.798 168.139 18.9453 168.642 19.24C169.153 19.5347 169.543 19.9333 169.812 20.436C170.089 20.93 170.228 21.4803 170.228 22.087ZM169.305 22.061C169.313 21.5323 169.205 21.0817 168.98 20.709C168.763 20.3363 168.464 20.0547 168.083 19.864C167.701 19.6733 167.285 19.578 166.835 19.578C166.159 19.578 165.582 19.7947 165.106 20.228C164.629 20.6613 164.365 21.2723 164.313 22.061H169.305Z" fill="white"/>
<path d="M72.56 39.1C72.2 38.4067 71.7 37.8867 71.06 37.54C70.42 37.18 69.68 37 68.84 37C67.92 37 67.1 37.2067 66.38 37.62C65.66 38.0333 65.0933 38.62 64.68 39.38C64.28 40.14 64.08 41.02 64.08 42.02C64.08 43.02 64.28 43.9067 64.68 44.68C65.0933 45.44 65.66 46.0267 66.38 46.44C67.1 46.8533 67.92 47.06 68.84 47.06C70.08 47.06 71.0867 46.7133 71.86 46.02C72.6333 45.3267 73.1067 44.3867 73.28 43.2H68.06V41.38H75.72V43.16C75.5733 44.24 75.1867 45.2333 74.56 46.14C73.9467 47.0467 73.14 47.7733 72.14 48.32C71.1533 48.8533 70.0533 49.12 68.84 49.12C67.5333 49.12 66.34 48.82 65.26 48.22C64.18 47.6067 63.32 46.76 62.68 45.68C62.0533 44.6 61.74 43.38 61.74 42.02C61.74 40.66 62.0533 39.44 62.68 38.36C63.32 37.28 64.18 36.44 65.26 35.84C66.3533 35.2267 67.5467 34.92 68.84 34.92C70.32 34.92 71.6333 35.2867 72.78 36.02C73.94 36.74 74.78 37.7667 75.3 39.1H72.56ZM82.7488 49.18C81.7088 49.18 80.7688 48.9467 79.9288 48.48C79.0888 48 78.4288 47.3333 77.9488 46.48C77.4688 45.6133 77.2288 44.6133 77.2288 43.48C77.2288 42.36 77.4754 41.3667 77.9688 40.5C78.4621 39.6333 79.1354 38.9667 79.9888 38.5C80.8421 38.0333 81.7954 37.8 82.8488 37.8C83.9021 37.8 84.8554 38.0333 85.7088 38.5C86.5621 38.9667 87.2354 39.6333 87.7288 40.5C88.2221 41.3667 88.4688 42.36 88.4688 43.48C88.4688 44.6 88.2154 45.5933 87.7088 46.46C87.2021 47.3267 86.5088 48 85.6288 48.48C84.7621 48.9467 83.8021 49.18 82.7488 49.18ZM82.7488 47.2C83.3354 47.2 83.8821 47.06 84.3888 46.78C84.9088 46.5 85.3288 46.08 85.6488 45.52C85.9688 44.96 86.1288 44.28 86.1288 43.48C86.1288 42.68 85.9754 42.0067 85.6688 41.46C85.3621 40.9 84.9554 40.48 84.4488 40.2C83.9421 39.92 83.3954 39.78 82.8088 39.78C82.2221 39.78 81.6754 39.92 81.1688 40.2C80.6754 40.48 80.2821 40.9 79.9888 41.46C79.6954 42.0067 79.5488 42.68 79.5488 43.48C79.5488 44.6667 79.8488 45.5867 80.4488 46.24C81.0621 46.88 81.8288 47.2 82.7488 47.2ZM95.5027 49.18C94.4627 49.18 93.5227 48.9467 92.6827 48.48C91.8427 48 91.1827 47.3333 90.7027 46.48C90.2227 45.6133 89.9827 44.6133 89.9827 43.48C89.9827 42.36 90.2293 41.3667 90.7227 40.5C91.216 39.6333 91.8893 38.9667 92.7427 38.5C93.596 38.0333 94.5493 37.8 95.6027 37.8C96.656 37.8 97.6093 38.0333 98.4627 38.5C99.316 38.9667 99.9893 39.6333 100.483 40.5C100.976 41.3667 101.223 42.36 101.223 43.48C101.223 44.6 100.969 45.5933 100.463 46.46C99.956 47.3267 99.2627 48 98.3827 48.48C97.516 48.9467 96.556 49.18 95.5027 49.18ZM95.5027 47.2C96.0893 47.2 96.636 47.06 97.1427 46.78C97.6627 46.5 98.0827 46.08 98.4027 45.52C98.7227 44.96 98.8827 44.28 98.8827 43.48C98.8827 42.68 98.7293 42.0067 98.4227 41.46C98.116 40.9 97.7093 40.48 97.2027 40.2C96.696 39.92 96.1493 39.78 95.5627 39.78C94.976 39.78 94.4293 39.92 93.9227 40.2C93.4293 40.48 93.036 40.9 92.7427 41.46C92.4493 42.0067 92.3027 42.68 92.3027 43.48C92.3027 44.6667 92.6027 45.5867 93.2027 46.24C93.816 46.88 94.5827 47.2 95.5027 47.2ZM107.917 37.8C108.77 37.8 109.523 37.9733 110.177 38.32C110.843 38.6533 111.363 39.0733 111.737 39.58V37.98H114.037V49.18C114.037 50.1933 113.823 51.0933 113.397 51.88C112.97 52.68 112.35 53.3067 111.537 53.76C110.737 54.2133 109.777 54.44 108.657 54.44C107.163 54.44 105.923 54.0867 104.937 53.38C103.95 52.6867 103.39 51.74 103.257 50.54H105.517C105.69 51.1133 106.057 51.5733 106.617 51.92C107.19 52.28 107.87 52.46 108.657 52.46C109.577 52.46 110.317 52.18 110.877 51.62C111.45 51.06 111.737 50.2467 111.737 49.18V47.34C111.35 47.86 110.823 48.3 110.157 48.66C109.503 49.0067 108.757 49.18 107.917 49.18C106.957 49.18 106.077 48.94 105.277 48.46C104.49 47.9667 103.863 47.2867 103.397 46.42C102.943 45.54 102.717 44.5467 102.717 43.44C102.717 42.3333 102.943 41.3533 103.397 40.5C103.863 39.6467 104.49 38.9867 105.277 38.52C106.077 38.04 106.957 37.8 107.917 37.8ZM111.737 43.48C111.737 42.72 111.577 42.06 111.257 41.5C110.95 40.94 110.543 40.5133 110.037 40.22C109.53 39.9267 108.983 39.78 108.397 39.78C107.81 39.78 107.263 39.9267 106.757 40.22C106.25 40.5 105.837 40.92 105.517 41.48C105.21 42.0267 105.057 42.68 105.057 43.44C105.057 44.2 105.21 44.8667 105.517 45.44C105.837 46.0133 106.25 46.4533 106.757 46.76C107.277 47.0533 107.823 47.2 108.397 47.2C108.983 47.2 109.53 47.0533 110.037 46.76C110.543 46.4667 110.95 46.04 111.257 45.48C111.577 44.9067 111.737 44.24 111.737 43.48ZM119.311 34.2V49H117.031V34.2H119.311ZM132.405 43.22C132.405 43.6333 132.378 44.0067 132.325 44.34H123.905C123.971 45.22 124.298 45.9267 124.885 46.46C125.471 46.9933 126.191 47.26 127.045 47.26C128.271 47.26 129.138 46.7467 129.645 45.72H132.105C131.771 46.7333 131.165 47.5667 130.285 48.22C129.418 48.86 128.338 49.18 127.045 49.18C125.991 49.18 125.045 48.9467 124.205 48.48C123.378 48 122.725 47.3333 122.245 46.48C121.778 45.6133 121.545 44.6133 121.545 43.48C121.545 42.3467 121.771 41.3533 122.225 40.5C122.691 39.6333 123.338 38.9667 124.165 38.5C125.005 38.0333 125.965 37.8 127.045 37.8C128.085 37.8 129.011 38.0267 129.825 38.48C130.638 38.9333 131.271 39.5733 131.725 40.4C132.178 41.2133 132.405 42.1533 132.405 43.22ZM130.025 42.5C130.011 41.66 129.711 40.9867 129.125 40.48C128.538 39.9733 127.811 39.72 126.945 39.72C126.158 39.72 125.485 39.9733 124.925 40.48C124.365 40.9733 124.031 41.6467 123.925 42.5H130.025ZM149.564 39.24C149.564 39.9467 149.397 40.6133 149.064 41.24C148.73 41.8667 148.197 42.38 147.464 42.78C146.73 43.1667 145.79 43.36 144.644 43.36H142.124V49H139.844V35.1H144.644C145.71 35.1 146.61 35.2867 147.344 35.66C148.09 36.02 148.644 36.5133 149.004 37.14C149.377 37.7667 149.564 38.4667 149.564 39.24ZM144.644 41.5C145.51 41.5 146.157 41.3067 146.584 40.92C147.01 40.52 147.224 39.96 147.224 39.24C147.224 37.72 146.364 36.96 144.644 36.96H142.124V41.5H144.644ZM154.018 34.2V49H151.738V34.2H154.018ZM156.252 43.44C156.252 42.3333 156.478 41.3533 156.932 40.5C157.398 39.6467 158.025 38.9867 158.812 38.52C159.612 38.04 160.492 37.8 161.452 37.8C162.318 37.8 163.072 37.9733 163.712 38.32C164.365 38.6533 164.885 39.0733 165.272 39.58V37.98H167.572V49H165.272V47.36C164.885 47.88 164.358 48.3133 163.692 48.66C163.025 49.0067 162.265 49.18 161.412 49.18C160.465 49.18 159.598 48.94 158.812 48.46C158.025 47.9667 157.398 47.2867 156.932 46.42C156.478 45.54 156.252 44.5467 156.252 43.44ZM165.272 43.48C165.272 42.72 165.112 42.06 164.792 41.5C164.485 40.94 164.078 40.5133 163.572 40.22C163.065 39.9267 162.518 39.78 161.932 39.78C161.345 39.78 160.798 39.9267 160.292 40.22C159.785 40.5 159.372 40.92 159.052 41.48C158.745 42.0267 158.592 42.68 158.592 43.44C158.592 44.2 158.745 44.8667 159.052 45.44C159.372 46.0133 159.785 46.4533 160.292 46.76C160.812 47.0533 161.358 47.2 161.932 47.2C162.518 47.2 163.065 47.0533 163.572 46.76C164.078 46.4667 164.485 46.04 164.792 45.48C165.112 44.9067 165.272 44.24 165.272 43.48ZM180.486 37.98L173.726 54.18H171.366L173.606 48.82L169.266 37.98H171.806L174.906 46.38L178.126 37.98H180.486Z" fill="white"/>
</svg>
